STARTFONT 2.1
COMMENT This font is a free software.
COMMENT Unlimited permission is granted to use, copy, and distribute it,
COMMENT with or without modification, either commercially and noncommercially.
COMMENT THIS FONT IS PROVIDED "AS IS" WITHOUT WARRANTY.
FONT -mplus-fxd-medium-R-normal--10-10-75-75-C-60-iso8859-1
SIZE 1 75 75
FONTBOUNDINGBOX 6 11 0 -2
STARTPROPERTIES 20
FONTNAME_REGISTRY ""
FOUNDRY "mplus"
FAMILY_NAME "fxd"
WEIGHT_NAME "medium"
SLANT "R"
SETWIDTH_NAME "normal"
ADD_STYLE_NAME ""
PIXEL_SIZE 10
POINT_SIZE 10
RESOLUTION_X 75
RESOLUTION_Y 75
SPACING "C"
AVERAGE_WIDTH 60
CHARSET_REGISTRY "iso8859"
CHARSET_ENCODING "1"
COPYRIGHT "Copyright (C) 2002 COZ"
DEFAULT_CHAR 0
FONT_DESCENT 4
FONT_ASCENT 9
_XMBDFED_INFO "Edited with xmbdfed 4.5."
ENDPROPERTIES
CHARS 224
STARTCHAR char0
ENCODING 0
SWIDTH 5760 0
DWIDTH 6 0
BBX 6 11 0 -2
BITMAP
00
78
78
78
78
78
78
78
78
78
00
ENDCHAR
STARTCHAR char1
ENCODING 1
SWIDTH 5760 0
DWIDTH 6 0
BBX 6 11 0 -2
BITMAP
00
00
00
20
70
F8
70
20
00
00
00
ENDCHAR
STARTCHAR char2
ENCODING 2
SWIDTH 5760 0
DWIDTH 6 0
BBX 6 11 0 -2
BITMAP
00
54
A8
54
A8
54
A8
54
A8
54
A8
ENDCHAR
STARTCHAR char3
ENCODING 3
SWIDTH 5760 0
DWIDTH 6 0
BBX 6 11 0 -2
BITMAP
00
00
00
A0
A0
E0
A0
B8
10
10
10
ENDCHAR
STARTCHAR char4
ENCODING 4
SWIDTH 5760 0
DWIDTH 6 0
BBX 6 11 0 -2
BITMAP
00
00
00
E0
80
E0
B8
A0
38
20
20
ENDCHAR
STARTCHAR char5
ENCODING 5
SWIDTH 5760 0
DWIDTH 6 0
BBX 6 11 0 -2
BITMAP
00
00
00
70
80
80
70
48
70
50
48
ENDCHAR
STARTCHAR char6
ENCODING 6
SWIDTH 5760 0
DWIDTH 6 0
BBX 6 11 0 -2
BITMAP
00
00
00
80
80
80
B8
E0
38
20
20
ENDCHAR
STARTCHAR char7
ENCODING 7
SWIDTH 5760 0
DWIDTH 6 0
BBX 6 11 0 -2
BITMAP
00
00
60
90
90
60
00
00
00
00
00
ENDCHAR
STARTCHAR char8
ENCODING 8
SWIDTH 5760 0
DWIDTH 6 0
BBX 6 11 0 -2
BITMAP
00
00
20
20
F8
20
20
00
F8
00
00
ENDCHAR
STARTCHAR char9
ENCODING 9
SWIDTH 5760 0
DWIDTH 6 0
BBX 6 11 0 -2
BITMAP
00
00
00
90
D0
B0
90
20
20
20
38
ENDCHAR
STARTCHAR char10
ENCODING 10
SWIDTH 5760 0
DWIDTH 6 0
BBX 6 11 0 -2
BITMAP
00
00
00
90
90
A0
C0
38
10
10
10
ENDCHAR
STARTCHAR char11
ENCODING 11
SWIDTH 5760 0
DWIDTH 6 0
BBX 6 11 0 -2
BITMAP
20
20
20
20
20
E0
00
00
00
00
00
ENDCHAR
STARTCHAR char12
ENCODING 12
SWIDTH 5760 0
DWIDTH 6 0
BBX 6 11 0 -2
BITMAP
00
00
00
00
00
E0
20
20
20
20
20
ENDCHAR
STARTCHAR char13
ENCODING 13
SWIDTH 5760 0
DWIDTH 6 0
BBX 6 11 0 -2
BITMAP
00
00
00
00
00
3C
20
20
20
20
20
ENDCHAR
STARTCHAR char14
ENCODING 14
SWIDTH 5760 0
DWIDTH 6 0
BBX 6 11 0 -2
BITMAP
20
20
20
20
20
3C
00
00
00
00
00
ENDCHAR
STARTCHAR char15
ENCODING 15
SWIDTH 5760 0
DWIDTH 6 0
BBX 6 11 0 -2
BITMAP
20
20
20
20
20
FC
20
20
20
20
20
ENDCHAR
STARTCHAR char16
ENCODING 16
SWIDTH 5760 0
DWIDTH 6 0
BBX 6 11 0 -2
BITMAP
00
FC
00
00
00
00
00
00
00
00
00
ENDCHAR
STARTCHAR char17
ENCODING 17
SWIDTH 5760 0
DWIDTH 6 0
BBX 6 11 0 -2
BITMAP
00
00
00
FC
00
00
00
00
00
00
00
ENDCHAR
STARTCHAR char18
ENCODING 18
SWIDTH 5760 0
DWIDTH 6 0
BBX 6 11 0 -2
BITMAP
00
00
00
00
00
FC
00
00
00
00
00
ENDCHAR
STARTCHAR char19
ENCODING 19
SWIDTH 5760 0
DWIDTH 6 0
BBX 6 11 0 -2
BITMAP
00
00
00
00
00
00
00
FC
00
00
00
ENDCHAR
STARTCHAR char20
ENCODING 20
SWIDTH 5760 0
DWIDTH 6 0
BBX 6 11 0 -2
BITMAP
00
00
00
00
00
00
00
00
00
FC
00
ENDCHAR
STARTCHAR char21
ENCODING 21
SWIDTH 5760 0
DWIDTH 6 0
BBX 6 11 0 -2
BITMAP
20
20
20
20
20
3C
20
20
20
20
20
ENDCHAR
STARTCHAR char22
ENCODING 22
SWIDTH 5760 0
DWIDTH 6 0
BBX 6 11 0 -2
BITMAP
20
20
20
20
20
E0
20
20
20
20
20
ENDCHAR
STARTCHAR char23
ENCODING 23
SWIDTH 5760 0
DWIDTH 6 0
BBX 6 11 0 -2
BITMAP
20
20
20
20
20
FC
00
00
00
00
00
ENDCHAR
STARTCHAR char24
ENCODING 24
SWIDTH 5760 0
DWIDTH 6 0
BBX 6 11 0 -2
BITMAP
00
00
00
00
00
FC
20
20
20
20
20
ENDCHAR
STARTCHAR char25
ENCODING 25
SWIDTH 5760 0
DWIDTH 6 0
BBX 6 11 0 -2
BITMAP
20
20
20
20
20
20
20
20
20
20
20
ENDCHAR
STARTCHAR char26
ENCODING 26
SWIDTH 5760 0
DWIDTH 6 0
BBX 6 11 0 -2
BITMAP
00
00
08
10
20
40
20
10
F8
00
00
ENDCHAR
STARTCHAR char27
ENCODING 27
SWIDTH 5760 0
DWIDTH 6 0
BBX 6 11 0 -2
BITMAP
00
00
80
40
20
10
20
40
F8
00
00
ENDCHAR
STARTCHAR char28
ENCODING 28
SWIDTH 5760 0
DWIDTH 6 0
BBX 6 11 0 -2
BITMAP
00
00
00
00
F8
50
50
90
98
00
00
ENDCHAR
STARTCHAR char29
ENCODING 29
SWIDTH 5760 0
DWIDTH 6 0
BBX 6 11 0 -2
BITMAP
00
00
00
10
F8
20
F8
40
00
00
00
ENDCHAR
STARTCHAR char30
ENCODING 30
SWIDTH 5760 0
DWIDTH 6 0
BBX 6 11 0 -2
BITMAP
00
00
30
48
40
F0
40
40
B8
00
00
ENDCHAR
STARTCHAR char31
ENCODING 31
SWIDTH 5760 0
DWIDTH 6 0
BBX 6 11 0 -2
BITMAP
00
00
00
00
00
00
20
00
00
00
00
ENDCHAR
STARTCHAR char32
ENCODING 32
SWIDTH 5760 0
DWIDTH 6 0
BBX 6 11 0 -2
BITMAP
00
00
00
00
00
00
00
00
00
00
00
ENDCHAR
STARTCHAR char33
ENCODING 33
SWIDTH 5760 0
DWIDTH 6 0
BBX 6 11 0 -2
BITMAP
00
00
20
20
20
20
20
00
20
00
00
ENDCHAR
STARTCHAR char34
ENCODING 34
SWIDTH 5760 0
DWIDTH 6 0
BBX 6 11 0 -2
BITMAP
00
50
50
50
00
00
00
00
00
00
00
ENDCHAR
STARTCHAR char35
ENCODING 35
SWIDTH 5760 0
DWIDTH 6 0
BBX 6 11 0 -2
BITMAP
00
00
50
50
F8
50
F8
50
50
00
00
ENDCHAR
STARTCHAR char36
ENCODING 36
SWIDTH 5760 0
DWIDTH 6 0
BBX 6 11 0 -2
BITMAP
00
00
20
78
A0
70
28
F0
20
00
00
ENDCHAR
STARTCHAR char37
ENCODING 37
SWIDTH 5760 0
DWIDTH 6 0
BBX 6 11 0 -2
BITMAP
00
00
C8
C8
10
20
40
98
98
00
00
ENDCHAR
STARTCHAR char38
ENCODING 38
SWIDTH 5760 0
DWIDTH 6 0
BBX 6 11 0 -2
BITMAP
00
00
60
90
90
60
A8
90
68
00
00
ENDCHAR
STARTCHAR char39
ENCODING 39
SWIDTH 5760 0
DWIDTH 6 0
BBX 6 11 0 -2
BITMAP
00
20
40
00
00
00
00
00
00
00
00
ENDCHAR
STARTCHAR char40
ENCODING 40
SWIDTH 5760 0
DWIDTH 6 0
BBX 6 11 0 -2
BITMAP
00
00
10
20
20
20
20
20
10
00
00
ENDCHAR
STARTCHAR char41
ENCODING 41
SWIDTH 5760 0
DWIDTH 6 0
BBX 6 11 0 -2
BITMAP
00
00
40
20
20
20
20
20
40
00
00
ENDCHAR
STARTCHAR char42
ENCODING 42
SWIDTH 5760 0
DWIDTH 6 0
BBX 6 11 0 -2
BITMAP
00
00
20
A8
70
70
A8
20
00
00
00
ENDCHAR
STARTCHAR char43
ENCODING 43
SWIDTH 5760 0
DWIDTH 6 0
BBX 6 11 0 -2
BITMAP
00
00
00
20
20
F8
20
20
00
00
00
ENDCHAR
STARTCHAR char44
ENCODING 44
SWIDTH 5760 0
DWIDTH 6 0
BBX 6 11 0 -2
BITMAP
00
00
00
00
00
00
00
00
40
80
00
ENDCHAR
STARTCHAR char45
ENCODING 45
SWIDTH 5760 0
DWIDTH 6 0
BBX 6 11 0 -2
BITMAP
00
00
00
00
00
F8
00
00
00
00
00
ENDCHAR
STARTCHAR char46
ENCODING 46
SWIDTH 5760 0
DWIDTH 6 0
BBX 6 11 0 -2
BITMAP
00
00
00
00
00
00
00
00
40
00
00
ENDCHAR
STARTCHAR char47
ENCODING 47
SWIDTH 5760 0
DWIDTH 6 0
BBX 6 11 0 -2
BITMAP
00
00
08
08
10
10
20
20
40
40
00
ENDCHAR
STARTCHAR char48
ENCODING 48
SWIDTH 5760 0
DWIDTH 6 0
BBX 6 11 0 -2
BITMAP
00
00
70
88
98
A8
C8
88
70
00
00
ENDCHAR
STARTCHAR char49
ENCODING 49
SWIDTH 5760 0
DWIDTH 6 0
BBX 6 11 0 -2
BITMAP
00
00
20
60
A0
20
20
20
20
00
00
ENDCHAR
STARTCHAR char50
ENCODING 50
SWIDTH 5760 0
DWIDTH 6 0
BBX 6 11 0 -2
BITMAP
00
00
70
88
08
30
40
80
F8
00
00
ENDCHAR
STARTCHAR char51
ENCODING 51
SWIDTH 5760 0
DWIDTH 6 0
BBX 6 11 0 -2
BITMAP
00
00
F8
10
20
70
08
88
70
00
00
ENDCHAR
STARTCHAR char52
ENCODING 52
SWIDTH 5760 0
DWIDTH 6 0
BBX 6 11 0 -2
BITMAP
00
00
30
50
90
90
F8
10
10
00
00
ENDCHAR
STARTCHAR char53
ENCODING 53
SWIDTH 5760 0
DWIDTH 6 0
BBX 6 11 0 -2
BITMAP
00
00
F8
80
F0
08
08
88
70
00
00
ENDCHAR
STARTCHAR char54
ENCODING 54
SWIDTH 5760 0
DWIDTH 6 0
BBX 6 11 0 -2
BITMAP
00
00
70
80
F0
88
88
88
70
00
00
ENDCHAR
STARTCHAR char55
ENCODING 55
SWIDTH 5760 0
DWIDTH 6 0
BBX 6 11 0 -2
BITMAP
00
00
F8
08
10
20
20
40
40
00
00
ENDCHAR
STARTCHAR char56
ENCODING 56
SWIDTH 5760 0
DWIDTH 6 0
BBX 6 11 0 -2
BITMAP
00
00
70
88
88
70
88
88
70
00
00
ENDCHAR
STARTCHAR char57
ENCODING 57
SWIDTH 5760 0
DWIDTH 6 0
BBX 6 11 0 -2
BITMAP
00
00
70
88
88
88
78
08
70
00
00
ENDCHAR
STARTCHAR char58
ENCODING 58
SWIDTH 5760 0
DWIDTH 6 0
BBX 6 11 0 -2
BITMAP
00
00
00
00
20
00
00
20
00
00
00
ENDCHAR
STARTCHAR char59
ENCODING 59
SWIDTH 5760 0
DWIDTH 6 0
BBX 6 11 0 -2
BITMAP
00
00
00
00
20
00
00
20
40
00
00
ENDCHAR
STARTCHAR char60
ENCODING 60
SWIDTH 5760 0
DWIDTH 6 0
BBX 6 11 0 -2
BITMAP
00
00
08
10
20
40
20
10
08
00
00
ENDCHAR
STARTCHAR char61
ENCODING 61
SWIDTH 5760 0
DWIDTH 6 0
BBX 6 11 0 -2
BITMAP
00
00
00
00
F8
00
F8
00
00
00
00
ENDCHAR
STARTCHAR char62
ENCODING 62
SWIDTH 5760 0
DWIDTH 6 0
BBX 6 11 0 -2
BITMAP
00
00
80
40
20
10
20
40
80
00
00
ENDCHAR
STARTCHAR char63
ENCODING 63
SWIDTH 5760 0
DWIDTH 6 0
BBX 6 11 0 -2
BITMAP
00
00
70
88
08
10
20
00
20
00
00
ENDCHAR
STARTCHAR char64
ENCODING 64
SWIDTH 5760 0
DWIDTH 6 0
BBX 6 11 0 -2
BITMAP
00
00
70
88
B8
A8
B8
80
70
00
00
ENDCHAR
STARTCHAR char65
ENCODING 65
SWIDTH 5760 0
DWIDTH 6 0
BBX 6 11 0 -2
BITMAP
00
00
20
20
50
50
F8
88
88
00
00
ENDCHAR
STARTCHAR char66
ENCODING 66
SWIDTH 5760 0
DWIDTH 6 0
BBX 6 11 0 -2
BITMAP
00
00
F0
88
88
F0
88
88
F0
00
00
ENDCHAR
STARTCHAR char67
ENCODING 67
SWIDTH 5760 0
DWIDTH 6 0
BBX 6 11 0 -2
BITMAP
00
00
70
88
80
80
80
88
70
00
00
ENDCHAR
STARTCHAR char68
ENCODING 68
SWIDTH 5760 0
DWIDTH 6 0
BBX 6 11 0 -2
BITMAP
00
00
F0
88
88
88
88
88
F0
00
00
ENDCHAR
STARTCHAR char69
ENCODING 69
SWIDTH 5760 0
DWIDTH 6 0
BBX 6 11 0 -2
BITMAP
00
00
F8
80
80
F0
80
80
F8
00
00
ENDCHAR
STARTCHAR char70
ENCODING 70
SWIDTH 5760 0
DWIDTH 6 0
BBX 6 11 0 -2
BITMAP
00
00
F8
80
80
F0
80
80
80
00
00
ENDCHAR
STARTCHAR char71
ENCODING 71
SWIDTH 5760 0
DWIDTH 6 0
BBX 6 11 0 -2
BITMAP
00
00
70
88
80
B8
88
88
78
00
00
ENDCHAR
STARTCHAR char72
ENCODING 72
SWIDTH 5760 0
DWIDTH 6 0
BBX 6 11 0 -2
BITMAP
00
00
88
88
88
F8
88
88
88
00
00
ENDCHAR
STARTCHAR char73
ENCODING 73
SWIDTH 5760 0
DWIDTH 6 0
BBX 6 11 0 -2
BITMAP
00
00
70
20
20
20
20
20
70
00
00
ENDCHAR
STARTCHAR char74
ENCODING 74
SWIDTH 5760 0
DWIDTH 6 0
BBX 6 11 0 -2
BITMAP
00
00
08
08
08
08
88
88
70
00
00
ENDCHAR
STARTCHAR char75
ENCODING 75
SWIDTH 5760 0
DWIDTH 6 0
BBX 6 11 0 -2
BITMAP
00
00
88
90
A0
C0
A0
90
88
00
00
ENDCHAR
STARTCHAR char76
ENCODING 76
SWIDTH 5760 0
DWIDTH 6 0
BBX 6 11 0 -2
BITMAP
00
00
80
80
80
80
80
80
F8
00
00
ENDCHAR
STARTCHAR char77
ENCODING 77
SWIDTH 5760 0
DWIDTH 6 0
BBX 6 11 0 -2
BITMAP
00
00
88
D8
A8
A8
88
88
88
00
00
ENDCHAR
STARTCHAR char78
ENCODING 78
SWIDTH 5760 0
DWIDTH 6 0
BBX 6 11 0 -2
BITMAP
00
00
88
C8
A8
98
88
88
88
00
00
ENDCHAR
STARTCHAR char79
ENCODING 79
SWIDTH 5760 0
DWIDTH 6 0
BBX 6 11 0 -2
BITMAP
00
00
70
88
88
88
88
88
70
00
00
ENDCHAR
STARTCHAR char80
ENCODING 80
SWIDTH 5760 0
DWIDTH 6 0
BBX 6 11 0 -2
BITMAP
00
00
F0
88
88
88
F0
80
80
00
00
ENDCHAR
STARTCHAR char81
ENCODING 81
SWIDTH 5760 0
DWIDTH 6 0
BBX 6 11 0 -2
BITMAP
00
00
70
88
88
88
88
88
70
10
08
ENDCHAR
STARTCHAR char82
ENCODING 82
SWIDTH 5760 0
DWIDTH 6 0
BBX 6 11 0 -2
BITMAP
00
00
F0
88
88
F0
88
88
88
00
00
ENDCHAR
STARTCHAR char83
ENCODING 83
SWIDTH 5760 0
DWIDTH 6 0
BBX 6 11 0 -2
BITMAP
00
00
70
88
80
70
08
88
70
00
00
ENDCHAR
STARTCHAR char84
ENCODING 84
SWIDTH 5760 0
DWIDTH 6 0
BBX 6 11 0 -2
BITMAP
00
00
F8
20
20
20
20
20
20
00
00
ENDCHAR
STARTCHAR char85
ENCODING 85
SWIDTH 5760 0
DWIDTH 6 0
BBX 6 11 0 -2
BITMAP
00
00
88
88
88
88
88
88
70
00
00
ENDCHAR
STARTCHAR char86
ENCODING 86
SWIDTH 5760 0
DWIDTH 6 0
BBX 6 11 0 -2
BITMAP
00
00
88
88
88
50
50
20
20
00
00
ENDCHAR
STARTCHAR char87
ENCODING 87
SWIDTH 5760 0
DWIDTH 6 0
BBX 6 11 0 -2
BITMAP
00
00
A8
A8
A8
A8
A8
50
50
00
00
ENDCHAR
STARTCHAR char88
ENCODING 88
SWIDTH 5760 0
DWIDTH 6 0
BBX 6 11 0 -2
BITMAP
00
00
88
50
20
20
20
50
88
00
00
ENDCHAR
STARTCHAR char89
ENCODING 89
SWIDTH 5760 0
DWIDTH 6 0
BBX 6 11 0 -2
BITMAP
00
00
88
88
88
50
20
20
20
00
00
ENDCHAR
STARTCHAR char90
ENCODING 90
SWIDTH 5760 0
DWIDTH 6 0
BBX 6 11 0 -2
BITMAP
00
00
F8
08
10
20
40
80
F8
00
00
ENDCHAR
STARTCHAR char91
ENCODING 91
SWIDTH 5760 0
DWIDTH 6 0
BBX 6 11 0 -2
BITMAP
00
00
38
20
20
20
20
20
38
00
00
ENDCHAR
STARTCHAR char92
ENCODING 92
SWIDTH 5760 0
DWIDTH 6 0
BBX 6 11 0 -2
BITMAP
00
00
40
40
20
20
10
10
08
08
00
ENDCHAR
STARTCHAR char93
ENCODING 93
SWIDTH 5760 0
DWIDTH 6 0
BBX 6 11 0 -2
BITMAP
00
00
E0
20
20
20
20
20
E0
00
00
ENDCHAR
STARTCHAR char94
ENCODING 94
SWIDTH 5760 0
DWIDTH 6 0
BBX 6 11 0 -2
BITMAP
00
00
20
50
88
00
00
00
00
00
00
ENDCHAR
STARTCHAR char95
ENCODING 95
SWIDTH 5760 0
DWIDTH 6 0
BBX 6 11 0 -2
BITMAP
00
00
00
00
00
00
00
00
00
F8
00
ENDCHAR
STARTCHAR char96
ENCODING 96
SWIDTH 5760 0
DWIDTH 6 0
BBX 6 11 0 -2
BITMAP
00
20
10
00
00
00
00
00
00
00
00
ENDCHAR
STARTCHAR char97
ENCODING 97
SWIDTH 5760 0
DWIDTH 6 0
BBX 6 11 0 -2
BITMAP
00
00
00
00
70
08
78
88
78
00
00
ENDCHAR
STARTCHAR char98
ENCODING 98
SWIDTH 5760 0
DWIDTH 6 0
BBX 6 11 0 -2
BITMAP
00
00
80
80
F0
88
88
88
F0
00
00
ENDCHAR
STARTCHAR char99
ENCODING 99
SWIDTH 5760 0
DWIDTH 6 0
BBX 6 11 0 -2
BITMAP
00
00
00
00
70
88
80
80
78
00
00
ENDCHAR
STARTCHAR char100
ENCODING 100
SWIDTH 5760 0
DWIDTH 6 0
BBX 6 11 0 -2
BITMAP
00
00
08
08
78
88
88
88
78
00
00
ENDCHAR
STARTCHAR char101
ENCODING 101
SWIDTH 5760 0
DWIDTH 6 0
BBX 6 11 0 -2
BITMAP
00
00
00
00
70
88
F8
80
78
00
00
ENDCHAR
STARTCHAR char102
ENCODING 102
SWIDTH 5760 0
DWIDTH 6 0
BBX 6 11 0 -2
BITMAP
00
00
18
20
20
F8
20
20
20
00
00
ENDCHAR
STARTCHAR char103
ENCODING 103
SWIDTH 5760 0
DWIDTH 6 0
BBX 6 11 0 -2
BITMAP
00
00
00
00
78
88
88
88
78
08
70
ENDCHAR
STARTCHAR char104
ENCODING 104
SWIDTH 5760 0
DWIDTH 6 0
BBX 6 11 0 -2
BITMAP
00
00
80
80
B0
C8
88
88
88
00
00
ENDCHAR
STARTCHAR char105
ENCODING 105
SWIDTH 5760 0
DWIDTH 6 0
BBX 6 11 0 -2
BITMAP
00
00
20
00
60
20
20
20
70
00
00
ENDCHAR
STARTCHAR char106
ENCODING 106
SWIDTH 5760 0
DWIDTH 6 0
BBX 6 11 0 -2
BITMAP
00
00
20
00
60
20
20
20
20
20
C0
ENDCHAR
STARTCHAR char107
ENCODING 107
SWIDTH 5760 0
DWIDTH 6 0
BBX 6 11 0 -2
BITMAP
00
00
80
80
88
90
A0
90
88
00
00
ENDCHAR
STARTCHAR char108
ENCODING 108
SWIDTH 5760 0
DWIDTH 6 0
BBX 6 11 0 -2
BITMAP
00
00
60
20
20
20
20
20
70
00
00
ENDCHAR
STARTCHAR char109
ENCODING 109
SWIDTH 5760 0
DWIDTH 6 0
BBX 6 11 0 -2
BITMAP
00
00
00
00
F0
A8
A8
A8
A8
00
00
ENDCHAR
STARTCHAR char110
ENCODING 110
SWIDTH 5760 0
DWIDTH 6 0
BBX 6 11 0 -2
BITMAP
00
00
00
00
B0
C8
88
88
88
00
00
ENDCHAR
STARTCHAR char111
ENCODING 111
SWIDTH 5760 0
DWIDTH 6 0
BBX 6 11 0 -2
BITMAP
00
00
00
00
70
88
88
88
70
00
00
ENDCHAR
STARTCHAR char112
ENCODING 112
SWIDTH 5760 0
DWIDTH 6 0
BBX 6 11 0 -2
BITMAP
00
00
00
00
F0
88
88
88
F0
80
80
ENDCHAR
STARTCHAR char113
ENCODING 113
SWIDTH 5760 0
DWIDTH 6 0
BBX 6 11 0 -2
BITMAP
00
00
00
00
78
88
88
88
78
08
08
ENDCHAR
STARTCHAR char114
ENCODING 114
SWIDTH 5760 0
DWIDTH 6 0
BBX 6 11 0 -2
BITMAP
00
00
00
00
B0
C8
80
80
80
00
00
ENDCHAR
STARTCHAR char115
ENCODING 115
SWIDTH 5760 0
DWIDTH 6 0
BBX 6 11 0 -2
BITMAP
00
00
00
00
78
80
70
08
F0
00
00
ENDCHAR
STARTCHAR char116
ENCODING 116
SWIDTH 5760 0
DWIDTH 6 0
BBX 6 11 0 -2
BITMAP
00
00
20
20
F8
20
20
20
18
00
00
ENDCHAR
STARTCHAR char117
ENCODING 117
SWIDTH 5760 0
DWIDTH 6 0
BBX 6 11 0 -2
BITMAP
00
00
00
00
88
88
88
98
68
00
00
ENDCHAR
STARTCHAR char118
ENCODING 118
SWIDTH 5760 0
DWIDTH 6 0
BBX 6 11 0 -2
BITMAP
00
00
00
00
88
88
50
50
20
00
00
ENDCHAR
STARTCHAR char119
ENCODING 119
SWIDTH 5760 0
DWIDTH 6 0
BBX 6 11 0 -2
BITMAP
00
00
00
00
A8
A8
A8
50
50
00
00
ENDCHAR
STARTCHAR char120
ENCODING 120
SWIDTH 5760 0
DWIDTH 6 0
BBX 6 11 0 -2
BITMAP
00
00
00
00
88
50
20
50
88
00
00
ENDCHAR
STARTCHAR char121
ENCODING 121
SWIDTH 5760 0
DWIDTH 6 0
BBX 6 11 0 -2
BITMAP
00
00
00
00
88
88
88
88
78
08
70
ENDCHAR
STARTCHAR char122
ENCODING 122
SWIDTH 5760 0
DWIDTH 6 0
BBX 6 11 0 -2
BITMAP
00
00
00
00
F8
10
20
40
F8
00
00
ENDCHAR
STARTCHAR char123
ENCODING 123
SWIDTH 5760 0
DWIDTH 6 0
BBX 6 11 0 -2
BITMAP
00
00
18
20
20
C0
20
20
18
00
00
ENDCHAR
STARTCHAR char124
ENCODING 124
SWIDTH 5760 0
DWIDTH 6 0
BBX 6 11 0 -2
BITMAP
20
20
20
20
20
20
20
20
20
20
00
ENDCHAR
STARTCHAR char125
ENCODING 125
SWIDTH 5760 0
DWIDTH 6 0
BBX 6 11 0 -2
BITMAP
00
00
C0
20
20
18
20
20
C0
00
00
ENDCHAR
STARTCHAR char126
ENCODING 126
SWIDTH 5760 0
DWIDTH 6 0
BBX 6 11 0 -2
BITMAP
00
00
68
B0
00
00
00
00
00
00
00
ENDCHAR
STARTCHAR char127
ENCODING 127
SWIDTH 5760 0
DWIDTH 6 0
BBX 6 11 0 -2
BITMAP
00
00
00
00
00
00
00
00
00
00
00
ENDCHAR
STARTCHAR char160
ENCODING 160
SWIDTH 5760 0
DWIDTH 6 0
BBX 6 11 0 -2
BITMAP
00
00
00
00
00
00
00
00
00
00
00
ENDCHAR
STARTCHAR char33
ENCODING 161
SWIDTH 5760 0
DWIDTH 6 0
BBX 6 11 0 -2
BITMAP
00
00
20
00
20
20
20
20
20
00
00
ENDCHAR
STARTCHAR char162
ENCODING 162
SWIDTH 5760 0
DWIDTH 6 0
BBX 6 11 0 -2
BITMAP
00
00
20
70
A8
A0
A0
78
20
00
00
ENDCHAR
STARTCHAR char163
ENCODING 163
SWIDTH 5760 0
DWIDTH 6 0
BBX 6 11 0 -2
BITMAP
00
00
30
48
40
F0
40
40
B8
00
00
ENDCHAR
STARTCHAR char164
ENCODING 164
SWIDTH 5760 0
DWIDTH 6 0
BBX 6 11 0 -2
BITMAP
00
00
00
88
70
50
70
88
00
00
00
ENDCHAR
STARTCHAR char165
ENCODING 165
SWIDTH 5760 0
DWIDTH 6 0
BBX 6 11 0 -2
BITMAP
00
00
88
88
50
F8
20
F8
20
00
00
ENDCHAR
STARTCHAR char166
ENCODING 166
SWIDTH 5760 0
DWIDTH 6 0
BBX 6 11 0 -2
BITMAP
00
00
20
20
20
00
20
20
20
00
00
ENDCHAR
STARTCHAR char167
ENCODING 167
SWIDTH 5760 0
DWIDTH 6 0
BBX 6 11 0 -2
BITMAP
00
30
48
40
30
48
30
08
48
30
00
ENDCHAR
STARTCHAR char168
ENCODING 168
SWIDTH 5760 0
DWIDTH 6 0
BBX 6 11 0 -2
BITMAP
00
00
D8
00
00
00
00
00
00
00
00
ENDCHAR
STARTCHAR char169
ENCODING 169
SWIDTH 5760 0
DWIDTH 6 0
BBX 6 11 0 -2
BITMAP
00
00
70
88
B8
A0
B8
88
70
00
00
ENDCHAR
STARTCHAR char170
ENCODING 170
SWIDTH 5760 0
DWIDTH 6 0
BBX 6 11 0 -2
BITMAP
00
00
70
08
78
88
78
00
F8
00
00
ENDCHAR
STARTCHAR char171
ENCODING 171
SWIDTH 5760 0
DWIDTH 6 0
BBX 6 11 0 -2
BITMAP
00
00
00
00
28
50
A0
50
28
00
00
ENDCHAR
STARTCHAR char172
ENCODING 172
SWIDTH 5760 0
DWIDTH 6 0
BBX 6 11 0 -2
BITMAP
00
00
00
00
00
F8
08
08
00
00
00
ENDCHAR
STARTCHAR char173
ENCODING 173
SWIDTH 5760 0
DWIDTH 6 0
BBX 6 11 0 -2
BITMAP
00
00
00
00
00
F8
00
00
00
00
00
ENDCHAR
STARTCHAR char174
ENCODING 174
SWIDTH 5760 0
DWIDTH 6 0
BBX 6 11 0 -2
BITMAP
00
00
70
88
B8
A0
A8
88
70
00
00
ENDCHAR
STARTCHAR char175
ENCODING 175
SWIDTH 5760 0
DWIDTH 6 0
BBX 6 11 0 -2
BITMAP
00
00
F8
00
00
00
00
00
00
00
00
ENDCHAR
STARTCHAR char176
ENCODING 176
SWIDTH 5760 0
DWIDTH 6 0
BBX 6 11 0 -2
BITMAP
00
00
30
48
48
30
00
00
00
00
00
ENDCHAR
STARTCHAR char177
ENCODING 177
SWIDTH 5760 0
DWIDTH 6 0
BBX 6 11 0 -2
BITMAP
00
00
20
20
F8
20
20
00
F8
00
00
ENDCHAR
STARTCHAR char178
ENCODING 178
SWIDTH 5760 0
DWIDTH 6 0
BBX 6 11 0 -2
BITMAP
00
40
A0
20
40
E0
00
00
00
00
00
ENDCHAR
STARTCHAR char179
ENCODING 179
SWIDTH 5760 0
DWIDTH 6 0
BBX 6 11 0 -2
BITMAP
00
E0
20
40
20
C0
00
00
00
00
00
ENDCHAR
STARTCHAR char180
ENCODING 180
SWIDTH 5760 0
DWIDTH 6 0
BBX 6 11 0 -2
BITMAP
00
10
20
00
00
00
00
00
00
00
00
ENDCHAR
STARTCHAR char181
ENCODING 181
SWIDTH 5760 0
DWIDTH 6 0
BBX 6 11 0 -2
BITMAP
00
00
00
00
88
88
88
98
E8
80
00
ENDCHAR
STARTCHAR char182
ENCODING 182
SWIDTH 5760 0
DWIDTH 6 0
BBX 6 11 0 -2
BITMAP
00
00
78
E8
E8
68
28
28
28
00
00
ENDCHAR
STARTCHAR char183
ENCODING 183
SWIDTH 5760 0
DWIDTH 6 0
BBX 6 11 0 -2
BITMAP
00
00
00
00
00
30
00
00
00
00
00
ENDCHAR
STARTCHAR char184
ENCODING 184
SWIDTH 5760 0
DWIDTH 6 0
BBX 6 11 0 -2
BITMAP
00
00
00
00
00
00
00
00
00
10
20
ENDCHAR
STARTCHAR char185
ENCODING 185
SWIDTH 5760 0
DWIDTH 6 0
BBX 6 11 0 -2
BITMAP
00
40
C0
40
40
40
00
00
00
00
00
ENDCHAR
STARTCHAR char186
ENCODING 186
SWIDTH 5760 0
DWIDTH 6 0
BBX 6 11 0 -2
BITMAP
00
00
30
48
48
30
00
78
00
00
00
ENDCHAR
STARTCHAR char187
ENCODING 187
SWIDTH 5760 0
DWIDTH 6 0
BBX 6 11 0 -2
BITMAP
00
00
00
00
A0
50
28
50
A0
00
00
ENDCHAR
STARTCHAR char188
ENCODING 188
SWIDTH 5760 0
DWIDTH 6 0
BBX 6 11 0 -2
BITMAP
00
40
C0
40
40
30
50
78
10
00
00
ENDCHAR
STARTCHAR char189
ENCODING 189
SWIDTH 5760 0
DWIDTH 6 0
BBX 6 11 0 -2
BITMAP
00
40
C0
40
40
30
08
10
38
00
00
ENDCHAR
STARTCHAR char190
ENCODING 190
SWIDTH 5760 0
DWIDTH 6 0
BBX 6 11 0 -2
BITMAP
00
E0
40
20
C0
30
50
78
10
00
00
ENDCHAR
STARTCHAR char63
ENCODING 191
SWIDTH 5760 0
DWIDTH 6 0
BBX 6 11 0 -2
BITMAP
00
00
20
00
20
40
80
88
70
00
00
ENDCHAR
STARTCHAR char192
ENCODING 192
SWIDTH 5760 0
DWIDTH 6 0
BBX 6 11 0 -2
BITMAP
20
10
00
20
20
50
70
88
88
00
00
ENDCHAR
STARTCHAR char192
ENCODING 193
SWIDTH 5760 0
DWIDTH 6 0
BBX 6 11 0 -2
BITMAP
10
20
00
20
20
50
70
88
88
00
00
ENDCHAR
STARTCHAR char192
ENCODING 194
SWIDTH 5760 0
DWIDTH 6 0
BBX 6 11 0 -2
BITMAP
30
48
00
20
20
50
70
88
88
00
00
ENDCHAR
STARTCHAR char192
ENCODING 195
SWIDTH 5760 0
DWIDTH 6 0
BBX 6 11 0 -2
BITMAP
68
B0
00
20
20
50
70
88
88
00
00
ENDCHAR
STARTCHAR char192
ENCODING 196
SWIDTH 5760 0
DWIDTH 6 0
BBX 6 11 0 -2
BITMAP
50
50
00
20
20
50
70
88
88
00
00
ENDCHAR
STARTCHAR char192
ENCODING 197
SWIDTH 5760 0
DWIDTH 6 0
BBX 6 11 0 -2
BITMAP
20
50
50
20
20
50
70
88
88
00
00
ENDCHAR
STARTCHAR char198
ENCODING 198
SWIDTH 5760 0
DWIDTH 6 0
BBX 6 11 0 -2
BITMAP
00
00
38
50
50
F8
90
90
98
00
00
ENDCHAR
STARTCHAR char199
ENCODING 199
SWIDTH 5760 0
DWIDTH 6 0
BBX 6 11 0 -2
BITMAP
00
00
70
88
80
80
80
88
70
20
40
ENDCHAR
STARTCHAR char200
ENCODING 200
SWIDTH 5760 0
DWIDTH 6 0
BBX 6 11 0 -2
BITMAP
20
10
00
F8
80
F0
80
80
F8
00
00
ENDCHAR
STARTCHAR char200
ENCODING 201
SWIDTH 5760 0
DWIDTH 6 0
BBX 6 11 0 -2
BITMAP
10
20
00
F8
80
F0
80
80
F8
00
00
ENDCHAR
STARTCHAR char200
ENCODING 202
SWIDTH 5760 0
DWIDTH 6 0
BBX 6 11 0 -2
BITMAP
30
48
00
F8
80
F0
80
80
F8
00
00
ENDCHAR
STARTCHAR char200
ENCODING 203
SWIDTH 5760 0
DWIDTH 6 0
BBX 6 11 0 -2
BITMAP
50
50
00
F8
80
F0
80
80
F8
00
00
ENDCHAR
STARTCHAR char204
ENCODING 204
SWIDTH 5760 0
DWIDTH 6 0
BBX 6 11 0 -2
BITMAP
20
10
00
70
20
20
20
20
70
00
00
ENDCHAR
STARTCHAR char204
ENCODING 205
SWIDTH 5760 0
DWIDTH 6 0
BBX 6 11 0 -2
BITMAP
10
20
00
70
20
20
20
20
70
00
00
ENDCHAR
STARTCHAR char204
ENCODING 206
SWIDTH 5760 0
DWIDTH 6 0
BBX 6 11 0 -2
BITMAP
30
48
00
70
20
20
20
20
70
00
00
ENDCHAR
STARTCHAR char204
ENCODING 207
SWIDTH 5760 0
DWIDTH 6 0
BBX 6 11 0 -2
BITMAP
50
50
00
70
20
20
20
20
70
00
00
ENDCHAR
STARTCHAR char208
ENCODING 208
SWIDTH 5760 0
DWIDTH 6 0
BBX 6 11 0 -2
BITMAP
00
00
F0
48
48
E8
48
48
F0
00
00
ENDCHAR
STARTCHAR char209
ENCODING 209
SWIDTH 5760 0
DWIDTH 6 0
BBX 6 11 0 -2
BITMAP
68
B0
00
88
C8
A8
98
88
88
00
00
ENDCHAR
STARTCHAR char210
ENCODING 210
SWIDTH 5760 0
DWIDTH 6 0
BBX 6 11 0 -2
BITMAP
20
10
00
70
88
88
88
88
70
00
00
ENDCHAR
STARTCHAR char210
ENCODING 211
SWIDTH 5760 0
DWIDTH 6 0
BBX 6 11 0 -2
BITMAP
10
20
00
70
88
88
88
88
70
00
00
ENDCHAR
STARTCHAR char210
ENCODING 212
SWIDTH 5760 0
DWIDTH 6 0
BBX 6 11 0 -2
BITMAP
30
48
00
70
88
88
88
88
70
00
00
ENDCHAR
STARTCHAR char210
ENCODING 213
SWIDTH 5760 0
DWIDTH 6 0
BBX 6 11 0 -2
BITMAP
68
B0
00
70
88
88
88
88
70
00
00
ENDCHAR
STARTCHAR char210
ENCODING 214
SWIDTH 5760 0
DWIDTH 6 0
BBX 6 11 0 -2
BITMAP
50
50
00
70
88
88
88
88
70
00
00
ENDCHAR
STARTCHAR char215
ENCODING 215
SWIDTH 5760 0
DWIDTH 6 0
BBX 6 11 0 -2
BITMAP
00
00
00
88
50
20
50
88
00
00
00
ENDCHAR
STARTCHAR char216
ENCODING 216
SWIDTH 5760 0
DWIDTH 6 0
BBX 6 11 0 -2
BITMAP
00
10
70
98
A8
A8
A8
C8
70
40
00
ENDCHAR
STARTCHAR char217
ENCODING 217
SWIDTH 5760 0
DWIDTH 6 0
BBX 6 11 0 -2
BITMAP
20
10
00
88
88
88
88
88
70
00
00
ENDCHAR
STARTCHAR char217
ENCODING 218
SWIDTH 5760 0
DWIDTH 6 0
BBX 6 11 0 -2
BITMAP
10
20
00
88
88
88
88
88
70
00
00
ENDCHAR
STARTCHAR char217
ENCODING 219
SWIDTH 5760 0
DWIDTH 6 0
BBX 6 11 0 -2
BITMAP
30
48
00
88
88
88
88
88
70
00
00
ENDCHAR
STARTCHAR char217
ENCODING 220
SWIDTH 5760 0
DWIDTH 6 0
BBX 6 11 0 -2
BITMAP
50
50
00
88
88
88
88
88
70
00
00
ENDCHAR
STARTCHAR char221
ENCODING 221
SWIDTH 5760 0
DWIDTH 6 0
BBX 6 11 0 -2
BITMAP
10
20
00
88
88
50
20
20
20
00
00
ENDCHAR
STARTCHAR char222
ENCODING 222
SWIDTH 5760 0
DWIDTH 6 0
BBX 6 11 0 -2
BITMAP
00
80
F0
88
88
88
F0
80
80
00
00
ENDCHAR
STARTCHAR char223
ENCODING 223
SWIDTH 5760 0
DWIDTH 6 0
BBX 6 11 0 -2
BITMAP
00
00
70
88
88
F0
88
88
F0
80
80
ENDCHAR
STARTCHAR char224
ENCODING 224
SWIDTH 5760 0
DWIDTH 6 0
BBX 6 11 0 -2
BITMAP
20
10
00
00
70
08
78
88
78
00
00
ENDCHAR
STARTCHAR char224
ENCODING 225
SWIDTH 5760 0
DWIDTH 6 0
BBX 6 11 0 -2
BITMAP
10
20
00
00
70
08
78
88
78
00
00
ENDCHAR
STARTCHAR char224
ENCODING 226
SWIDTH 5760 0
DWIDTH 6 0
BBX 6 11 0 -2
BITMAP
30
48
00
00
70
08
78
88
78
00
00
ENDCHAR
STARTCHAR char224
ENCODING 227
SWIDTH 5760 0
DWIDTH 6 0
BBX 6 11 0 -2
BITMAP
68
B0
00
00
70
08
78
88
78
00
00
ENDCHAR
STARTCHAR char224
ENCODING 228
SWIDTH 5760 0
DWIDTH 6 0
BBX 6 11 0 -2
BITMAP
50
50
00
00
70
08
78
88
78
00
00
ENDCHAR
STARTCHAR char224
ENCODING 229
SWIDTH 5760 0
DWIDTH 6 0
BBX 6 11 0 -2
BITMAP
20
50
20
00
70
08
78
88
78
00
00
ENDCHAR
STARTCHAR char230
ENCODING 230
SWIDTH 5760 0
DWIDTH 6 0
BBX 6 11 0 -2
BITMAP
00
00
00
00
70
28
78
A0
F8
00
00
ENDCHAR
STARTCHAR char231
ENCODING 231
SWIDTH 5760 0
DWIDTH 6 0
BBX 6 11 0 -2
BITMAP
00
00
00
00
70
88
80
80
78
20
40
ENDCHAR
STARTCHAR char232
ENCODING 232
SWIDTH 5760 0
DWIDTH 6 0
BBX 6 11 0 -2
BITMAP
20
10
00
00
70
88
F8
80
78
00
00
ENDCHAR
STARTCHAR char232
ENCODING 233
SWIDTH 5760 0
DWIDTH 6 0
BBX 6 11 0 -2
BITMAP
10
20
00
00
70
88
F8
80
78
00
00
ENDCHAR
STARTCHAR char232
ENCODING 234
SWIDTH 5760 0
DWIDTH 6 0
BBX 6 11 0 -2
BITMAP
30
48
00
00
70
88
F8
80
78
00
00
ENDCHAR
STARTCHAR char232
ENCODING 235
SWIDTH 5760 0
DWIDTH 6 0
BBX 6 11 0 -2
BITMAP
50
50
00
00
70
88
F8
80
78
00
00
ENDCHAR
STARTCHAR char236
ENCODING 236
SWIDTH 5760 0
DWIDTH 6 0
BBX 6 11 0 -2
BITMAP
20
10
00
00
60
20
20
20
70
00
00
ENDCHAR
STARTCHAR char236
ENCODING 237
SWIDTH 5760 0
DWIDTH 6 0
BBX 6 11 0 -2
BITMAP
10
20
00
00
60
20
20
20
70
00
00
ENDCHAR
STARTCHAR char236
ENCODING 238
SWIDTH 5760 0
DWIDTH 6 0
BBX 6 11 0 -2
BITMAP
30
48
00
00
60
20
20
20
70
00
00
ENDCHAR
STARTCHAR char236
ENCODING 239
SWIDTH 5760 0
DWIDTH 6 0
BBX 6 11 0 -2
BITMAP
50
50
00
00
60
20
20
20
70
00
00
ENDCHAR
STARTCHAR char240
ENCODING 240
SWIDTH 5760 0
DWIDTH 6 0
BBX 6 11 0 -2
BITMAP
50
20
60
10
70
88
88
88
70
00
00
ENDCHAR
STARTCHAR char241
ENCODING 241
SWIDTH 5760 0
DWIDTH 6 0
BBX 6 11 0 -2
BITMAP
68
B0
00
00
B0
C8
88
88
88
00
00
ENDCHAR
STARTCHAR char242
ENCODING 242
SWIDTH 5760 0
DWIDTH 6 0
BBX 6 11 0 -2
BITMAP
20
10
00
00
70
88
88
88
70
00
00
ENDCHAR
STARTCHAR char242
ENCODING 243
SWIDTH 5760 0
DWIDTH 6 0
BBX 6 11 0 -2
BITMAP
10
20
00
00
70
88
88
88
70
00
00
ENDCHAR
STARTCHAR char242
ENCODING 244
SWIDTH 5760 0
DWIDTH 6 0
BBX 6 11 0 -2
BITMAP
30
48
00
00
70
88
88
88
70
00
00
ENDCHAR
STARTCHAR char242
ENCODING 245
SWIDTH 5760 0
DWIDTH 6 0
BBX 6 11 0 -2
BITMAP
68
B0
00
00
70
88
88
88
70
00
00
ENDCHAR
STARTCHAR char242
ENCODING 246
SWIDTH 5760 0
DWIDTH 6 0
BBX 6 11 0 -2
BITMAP
50
50
00
00
70
88
88
88
70
00
00
ENDCHAR
STARTCHAR char247
ENCODING 247
SWIDTH 5760 0
DWIDTH 6 0
BBX 6 11 0 -2
BITMAP
00
00
20
20
00
F8
00
20
20
00
00
ENDCHAR
STARTCHAR char248
ENCODING 248
SWIDTH 5760 0
DWIDTH 6 0
BBX 6 11 0 -2
BITMAP
00
00
00
10
70
98
A8
C8
70
40
00
ENDCHAR
STARTCHAR char249
ENCODING 249
SWIDTH 5760 0
DWIDTH 6 0
BBX 6 11 0 -2
BITMAP
20
10
00
00
88
88
88
98
68
00
00
ENDCHAR
STARTCHAR char249
ENCODING 250
SWIDTH 5760 0
DWIDTH 6 0
BBX 6 11 0 -2
BITMAP
10
20
00
00
88
88
88
98
68
00
00
ENDCHAR
STARTCHAR char249
ENCODING 251
SWIDTH 5760 0
DWIDTH 6 0
BBX 6 11 0 -2
BITMAP
30
48
00
00
88
88
88
98
68
00
00
ENDCHAR
STARTCHAR char249
ENCODING 252
SWIDTH 5760 0
DWIDTH 6 0
BBX 6 11 0 -2
BITMAP
50
50
00
00
88
88
88
98
68
00
00
ENDCHAR
STARTCHAR char121
ENCODING 253
SWIDTH 5760 0
DWIDTH 6 0
BBX 6 11 0 -2
BITMAP
10
20
00
00
88
88
88
88
78
08
70
ENDCHAR
STARTCHAR char112
ENCODING 254
SWIDTH 5760 0
DWIDTH 6 0
BBX 6 11 0 -2
BITMAP
00
00
80
80
F0
88
88
88
F0
80
80
ENDCHAR
STARTCHAR char121
ENCODING 255
SWIDTH 5760 0
DWIDTH 6 0
BBX 6 11 0 -2
BITMAP
50
50
00
00
88
88
88
88
78
08
70
ENDCHAR
ENDFONT
